<svg width="28" height="28" viewBox="0 0 28 28" fill="none" xmlns="http://www.w3.org/2000/svg">
<circle cx="14" cy="14" r="14" fill="white"/>
<g clip-path="url(#clip0_5_429)">
<path d="M21.2 6.8H18.8V6H9.2V6.8H6.8C6.32 6.8 6 7.12 6 7.6V9.52C6 11.36 7.36 12.88 9.2 13.12V13.2C9.2 15.52 10.8 17.44 12.96 17.92L12.4 19.6H10.56C10.24 19.6 9.92 19.84 9.84 20.16L9.2 22H18.8L18.16 20.16C18.08 19.84 17.76 19.6 17.44 19.6H15.6L15.04 17.92C17.2 17.44 18.8 15.52 18.8 13.2V13.12C20.64 12.88 22 11.36 22 9.52V7.6C22 7.12 21.68 6.8 21.2 6.8ZM9.2 11.52C8.32 11.28 7.6 10.48 7.6 9.52V8.4H9.2V11.52ZM15.6 14L14 13.12L12.4 14L12.8 12.4L11.6 10.8H13.28L14 9.2L14.72 10.8H16.4L15.2 12.4L15.6 14ZM20.4 9.52C20.4 10.48 19.68 11.36 18.8 11.52V8.4H20.4V9.52Z" fill="#535353"/>
</g>
<defs>
<clipPath id="clip0_5_429">
<rect width="16" height="16" fill="white" transform="translate(6 6)"/>
</clipPath>
</defs>
</svg>
