<svg width="24" height="24" viewBox="0 0 24 24" fill="none" xmlns="http://www.w3.org/2000/svg">
<path fillRule="evenodd" clipRule="evenodd" d="M12.273 3.23493C10.5279 3.17637 8.80841 3.66658 7.35651 4.63653C5.72404 5.72793 4.52849 7.3598 3.97998 9.24533C3.83144 9.2272 3.65358 9.2352 3.44238 9.29493C2.65384 9.51893 2.06104 10.1648 1.79438 10.7339C1.44824 11.4755 1.30238 12.4565 1.45624 13.4688C1.60904 14.4781 2.03544 15.3101 2.56878 15.8267C3.10371 16.3435 3.70771 16.5115 4.30771 16.3853C5.20104 16.1947 5.64398 16.052 5.51891 15.22L4.91358 11.1853C4.97505 10.0872 5.29099 9.01846 5.83645 8.06343C6.3819 7.1084 7.14193 6.29326 8.05651 5.6824C9.28906 4.85783 10.7491 4.44047 12.2313 4.48908C13.7134 4.53768 15.143 5.04978 16.3189 5.95333C17.1308 6.57579 17.7984 7.36648 18.2759 8.27119C18.7535 9.17589 19.0297 10.1732 19.0856 11.1947L18.6621 14.0168C18.2026 15.2763 17.3955 16.3798 16.3343 17.1991C15.2732 18.0185 14.0014 18.5202 12.6666 18.6461H10.8624C10.752 18.6459 10.6426 18.6674 10.5406 18.7096C10.4385 18.7517 10.3458 18.8135 10.2677 18.8916C10.1896 18.9696 10.1277 19.0623 10.0855 19.1643C10.0433 19.2664 10.0217 19.3757 10.0218 19.4861V19.9293C10.0216 20.0398 10.0432 20.1491 10.0854 20.2512C10.1276 20.3533 10.1895 20.446 10.2676 20.5241C10.3457 20.6021 10.4384 20.664 10.5405 20.7061C10.6426 20.7483 10.7519 20.7698 10.8624 20.7696H13.1373C13.2476 20.7698 13.3569 20.7482 13.4588 20.706C13.5607 20.6638 13.6533 20.6019 13.7312 20.5239C13.8091 20.4458 13.8709 20.3531 13.9129 20.2512C13.9549 20.1492 13.9763 20.0399 13.976 19.9296V19.6976C16.0199 19.1971 17.8006 17.9456 18.9637 16.192L19.6925 16.3853C20.2856 16.5392 20.8968 16.3432 21.4314 15.8267C21.9648 15.3099 22.3909 14.4781 22.544 13.4688C22.6986 12.4563 22.5482 11.4771 22.2064 10.7339C21.8632 9.99067 21.352 9.51867 20.7618 9.34933C20.5146 9.27813 20.2464 9.252 20.0162 9.24533C19.5209 7.54002 18.4942 6.03732 17.0856 4.956C15.7009 3.89303 14.0178 3.29109 12.273 3.23493Z" fill="white"/>
<path fillRule="evenodd" clipRule="evenodd" d="M14.936 10.4933C15.225 10.4937 15.502 10.6087 15.7064 10.813C15.9107 11.0174 16.0256 11.2945 16.0259 11.5835C16.0254 11.8724 15.9104 12.1494 15.706 12.3538C15.5017 12.5581 15.2247 12.6731 14.9357 12.6736C14.6464 12.6737 14.369 12.5589 14.1643 12.3545C13.9595 12.1501 13.8444 11.8728 13.844 11.5835C13.8441 11.4402 13.8724 11.2983 13.9273 11.166C13.9822 11.0336 14.0626 10.9134 14.164 10.8121C14.2654 10.7109 14.3857 10.6306 14.5181 10.5758C14.6505 10.5211 14.7924 10.493 14.9357 10.4931L14.936 10.4933ZM12 10.4933C12.2156 10.4934 12.4263 10.5575 12.6055 10.6773C12.7847 10.7971 12.9243 10.9674 13.0067 11.1666C13.0892 11.3658 13.1107 11.5849 13.0686 11.7964C13.0265 12.0078 12.9227 12.202 12.7702 12.3544C12.6178 12.5068 12.4235 12.6106 12.2121 12.6527C12.0007 12.6947 11.7815 12.6731 11.5824 12.5906C11.3832 12.5082 11.2129 12.3685 11.0931 12.1893C10.9734 12.01 10.9094 11.7993 10.9093 11.5837C10.9092 11.4405 10.9373 11.2986 10.9921 11.1662C11.0468 11.0338 11.1272 10.9135 11.2285 10.8122C11.3298 10.7109 11.4501 10.6306 11.5825 10.5758C11.7148 10.521 11.8567 10.4932 12 10.4933ZM9.0648 10.4933C9.20999 10.4901 9.35436 10.5159 9.48943 10.5693C9.6245 10.6226 9.74756 10.7024 9.85137 10.804C9.95519 10.9055 10.0377 11.0268 10.094 11.1606C10.1503 11.2945 10.1793 11.4382 10.1793 11.5835C10.1793 11.7287 10.1503 11.8725 10.094 12.0063C10.0377 12.1402 9.95519 12.2614 9.85137 12.363C9.74756 12.4645 9.6245 12.5443 9.48943 12.5976C9.35436 12.651 9.20999 12.6768 9.0648 12.6736C8.7786 12.6691 8.50563 12.5523 8.30482 12.3483C8.10401 12.1443 7.99145 11.8696 7.99145 11.5833C7.99145 11.2971 8.10401 11.0223 8.30482 10.8184C8.50563 10.6144 8.7786 10.4978 9.0648 10.4933ZM12 5.8096C8.80267 5.8096 6.22614 8.30133 6.22614 11.5832C6.22614 13.1595 6.82214 14.5525 7.79307 15.5747L7.44854 17.1192C7.33494 17.6275 7.68747 17.9693 8.14454 17.7149L9.65254 16.8736C10.3935 17.1944 11.1926 17.3591 12 17.3573C15.1984 17.3573 17.7733 14.8672 17.7733 11.584C17.7733 8.30187 15.1984 5.81013 12 5.81013V5.8096Z" fill="white"/>
</svg>
