<svg width="16" height="16" viewBox="0 0 16 16" fill="none" xmlns="http://www.w3.org/2000/svg">
<path d="M0.393693 7.05026L7.04914 0.394792C7.57406 -0.130132 8.4254 -0.130132 8.95033 0.394792C9.47525 0.919716 9.47525 1.77106 8.95033 2.29598L3.2461 8.00019L8.95033 13.7044C9.47525 14.2293 9.47525 15.0806 8.95033 15.6056C8.4254 16.1305 7.57406 16.1305 7.04914 15.6056L0.393693 8.95012C-0.131231 8.4265 -0.131231 7.57518 0.393693 7.05026ZM8.3961 6.64724L13.68 1.07827C14.2109 0.519389 15.0709 0.519389 15.6018 1.07827C16.1327 1.63716 16.1327 2.54379 15.6018 3.10336L11.2785 7.65978L15.6018 12.2162C16.1327 12.7751 16.1327 13.6824 15.6018 14.2413C15.0709 14.8002 14.2109 14.8002 13.68 14.2413L8.3961 8.67233C7.86516 8.11344 7.86516 7.2068 8.3961 6.64724Z" fill="white"/>
</svg>
