<svg width="16" height="14" viewBox="0 0 16 14" fill="none" xmlns="http://www.w3.org/2000/svg">
<path d="M4.5871 0.537354C3.7063 0.537354 2.9896 1.24753 2.9896 2.11714L2.93152 10.308L3.80288 10.3142L3.86099 2.12034C3.86099 1.72793 4.18673 1.40872 4.58713 1.40872H13.3444V0.537354H4.5871Z" fill="#020817" stroke="#020817" stroke-width="0.3"/>
<path d="M13.3444 0.537354C12.4315 0.537354 11.6888 1.28004 11.6888 2.19296V11.3859C11.6888 12.0505 11.1479 12.5913 10.4834 12.5913C9.81882 12.5913 9.27799 12.0505 9.27799 11.3859V10.3257C9.27799 10.0851 9.08295 9.89004 8.8423 9.89004H1.4357C1.19504 9.89004 1 10.0851 1 10.3257V11.3859C1 12.531 1.93163 13.4627 3.07676 13.4627V12.5913C2.41206 12.5913 1.87136 12.0505 1.87136 11.3859V10.7614H8.40663V11.3859C8.40663 12.531 9.33826 13.4626 10.4834 13.4626C11.6285 13.4626 12.5601 12.531 12.5601 11.3859V4.57469H14.5643C14.805 4.57469 15 4.37964 15 4.13899V2.19294C15 1.28004 14.2573 0.537354 13.3444 0.537354ZM14.1286 3.70332H12.5602V2.19294C12.5602 1.76044 12.9121 1.40872 13.3444 1.40872C13.7767 1.40872 14.1286 1.76047 14.1286 2.19294V3.70332H14.1286Z" fill="#020817" stroke="#020817" stroke-width="0.3"/>
<path d="M2.98962 12.5913H10.3816V13.4626H2.98962V12.5913ZM7.4772 2.96268H5.22615C4.9855 2.96268 4.79046 3.15772 4.79046 3.39837C4.79046 3.63902 4.9855 3.83407 5.22615 3.83407H7.4772C7.71785 3.83407 7.91289 3.63902 7.91289 3.39837C7.91289 3.15772 7.71782 2.96268 7.4772 2.96268ZM10.0913 4.7054H5.22615C4.9855 4.7054 4.79046 4.90045 4.79046 5.1411C4.79046 5.38175 4.9855 5.57679 5.22615 5.57679H10.0913C10.3319 5.57679 10.527 5.38175 10.527 5.1411C10.527 4.90045 10.3319 4.7054 10.0913 4.7054ZM10.0913 6.44813H5.22615C4.9855 6.44813 4.79046 6.64317 4.79046 6.88383C4.79046 7.12448 4.9855 7.31952 5.22615 7.31952H10.0913C10.3319 7.31952 10.527 7.12461 10.527 6.88383C10.527 6.64317 10.3319 6.44813 10.0913 6.44813ZM10.0913 8.19088H5.22615C4.9855 8.19088 4.79046 8.38593 4.79046 8.62658C4.79046 8.86723 4.9855 9.06227 5.22615 9.06227H10.0913C10.3319 9.06227 10.527 8.86723 10.527 8.62658C10.527 8.38593 10.3319 8.19088 10.0913 8.19088Z" fill="#020817" stroke="#020817" stroke-width="0.3"/>
</svg>
