<svg width="18" height="18" viewBox="0 0 18 18" fill="none" xmlns="http://www.w3.org/2000/svg">
<path d="M10.8974 7.10244L7.10244 10.8974C6.61494 10.4099 6.31494 9.74244 6.31494 8.99994C6.31494 7.51494 7.51494 6.31494 8.99994 6.31494C9.74244 6.31494 10.4099 6.61494 10.8974 7.10244Z" stroke="#535353" stroke-width="1.5" stroke-linecap="round" stroke-linejoin="round"/>
<path d="M13.3651 4.32749C12.0526 3.33749 10.5526 2.79749 9.00013 2.79749C6.35263 2.79749 3.88513 4.35749 2.16763 7.05749C1.49263 8.11499 1.49263 9.89249 2.16763 10.95C2.76013 11.88 3.45013 12.6825 4.20013 13.3275" stroke="#535353" stroke-width="1.5" stroke-linecap="round" stroke-linejoin="round"/>
<path d="M6.31494 14.6474C7.16994 15.0074 8.07744 15.2024 8.99994 15.2024C11.6474 15.2024 14.1149 13.6424 15.8324 10.9424C16.5074 9.88495 16.5074 8.10745 15.8324 7.04995C15.5849 6.65995 15.3149 6.29245 15.0374 5.94745" stroke="#535353" stroke-width="1.5" stroke-linecap="round" stroke-linejoin="round"/>
<path d="M11.6326 9.52496C11.4376 10.5825 10.5751 11.445 9.51758 11.64" stroke="#535353" stroke-width="1.5" stroke-linecap="round" stroke-linejoin="round"/>
<path d="M7.1025 10.8975L1.5 16.5" stroke="#535353" stroke-width="1.5" stroke-linecap="round" stroke-linejoin="round"/>
<path d="M16.5 1.5L10.8975 7.1025" stroke="#535353" stroke-width="1.5" stroke-linecap="round" stroke-linejoin="round"/>
</svg>
